<?xml version="1.0" encoding="UTF-8" standalone="no"?>
<svg
   id="visual"
   viewBox="0 0 2880 540"
   width="2880"
   height="540"
   version="1.1"
   sodipodi:docname="background.svg"
   xml:space="preserve"
   inkscape:version="1.2.2 (732a01da63, 2022-12-09)"
   xmlns:inkscape="http://www.inkscape.org/namespaces/inkscape"
   xmlns:sodipodi="http://sodipodi.sourceforge.net/DTD/sodipodi-0.dtd"
   xmlns="http://www.w3.org/2000/svg"
   xmlns:svg="http://www.w3.org/2000/svg"><defs
     id="defs29" /><sodipodi:namedview
     id="namedview27"
     pagecolor="#505050"
     bordercolor="#eeeeee"
     borderopacity="1"
     inkscape:showpageshadow="0"
     inkscape:pageopacity="0"
     inkscape:pagecheckerboard="0"
     inkscape:deskcolor="#505050"
     showgrid="false"
     inkscape:zoom="0.22281229"
     inkscape:cx="1640.3942"
     inkscape:cy="44.880827"
     inkscape:window-width="1920"
     inkscape:window-height="1017"
     inkscape:window-x="1072"
     inkscape:window-y="580"
     inkscape:window-maximized="1"
     inkscape:current-layer="visual" /><path
     d="m 1920,6 -44,11 h -43 -44 L 1745,6 1702,0 h -44 l -43,33 h -44 l -44,-21 -43,5 -44,-17 -44,12 -43,-12 -44,28 -44,-11 h -43 l -44,22 -43,-6 h -44 L 1047,23 1004,33 960,23 V 0 h 44 43 44 44 43 44 43 44 44 43 44 44 43 44 44 43 44 43 44 44 43 44 z"
     fill="#7e628d"
     id="path2" /><path
     d="m 1920,23 -44,32 -43,-27 -44,-5 -44,27 -43,-11 -44,-16 -43,48 -44,-38 -44,17 -43,-11 -44,5 -44,-21 -43,10 -44,11 -44,-21 -43,-6 -44,33 h -43 l -44,-17 -44,17 -43,16 -44,-22 V 21 l 44,10 43,-10 44,10 h 44 l 43,6 44,-22 h 43 l 44,11 44,-26 43,10 44,-10 44,15 43,-5 44,21 h 44 l 43,-31 h 44 l 43,4 44,11 h 44 43 l 44,-11 z"
     fill="#775b87"
     id="path4" /><path
     d="m 1920,158 h -44 l -43,-33 -44,-27 -44,-11 -43,11 -44,16 -43,27 -44,-102 -44,59 -43,60 -44,-81 -44,32 -43,-43 -44,124 -44,-65 -43,-65 -44,49 -43,-43 -44,5 -44,33 -43,59 -44,-97 V 42 l 44,22 43,-16 44,-17 44,17 h 43 l 44,-33 43,6 44,21 44,-11 43,-10 44,21 44,-5 43,11 44,-17 44,38 43,-48 44,16 43,11 44,-27 44,5 43,27 44,-32 z"
     fill="#715480"
     id="path6" /><path
     d="m 1920,185 -44,-27 -43,5 -44,-22 -44,-37 -43,27 -44,27 -43,10 -44,-118 -44,59 -43,65 -44,-97 -44,48 -43,-43 -44,119 -44,-65 -43,-76 -44,71 -43,-49 -44,-11 -44,49 -43,48 -44,-97 v -7 l 44,97 43,-59 44,-33 44,-5 43,43 44,-49 43,65 44,65 44,-124 43,43 44,-32 44,81 43,-60 44,-59 44,102 43,-27 44,-16 43,-11 44,11 44,27 43,33 h 44 z"
     fill="#6a4c7a"
     id="path8" /><path
     d="m 1920,201 -44,27 -43,-49 -44,16 -44,-16 -43,43 -44,33 -43,11 -44,-162 -44,5 -43,92 -44,-87 -44,22 -43,-22 -44,98 -44,-22 -43,-32 -44,64 -43,-75 -44,-11 -44,65 -43,54 -44,-114 V 69 l 44,97 43,-48 44,-49 44,11 43,49 44,-71 43,76 44,65 44,-119 43,43 44,-48 44,97 43,-65 44,-59 44,118 43,-10 44,-27 43,-27 44,37 44,22 43,-5 44,27 z"
     fill="#644573"
     id="path10" /><path
     d="m 1920,201 -44,75 -43,-97 -44,27 -44,6 -43,16 -44,54 -43,-16 -44,-114 -44,-16 -43,108 -44,-103 -44,-5 -43,-5 -44,81 -44,27 -43,-49 -44,86 -43,-124 -44,-5 -44,65 -43,86 -44,-113 v -46 l 44,114 43,-54 44,-65 44,11 43,75 44,-64 43,32 44,22 44,-98 43,22 44,-22 44,87 43,-92 44,-5 44,162 43,-11 44,-33 43,-43 44,16 44,-16 43,49 44,-27 z"
     fill="#5d3e6d"
     id="path12" /><path
     d="m 1920,260 -44,65 -43,-97 -44,16 -44,-27 -43,22 -44,118 -43,-75 -44,-103 -44,-16 -43,135 -44,-103 h -44 l -43,-43 -44,119 -44,-22 -43,-16 -44,65 -43,-119 -44,27 -44,49 -43,86 -44,-113 v -45 l 44,113 43,-86 44,-65 44,5 43,124 44,-86 43,49 44,-27 44,-81 43,5 44,5 44,103 43,-108 44,16 44,114 43,16 44,-54 43,-16 44,-6 44,-27 43,97 44,-75 z"
     fill="#583a67"
     id="path14" /><path
     d="m 1920,298 -44,49 -43,-49 -44,-54 -44,22 -43,5 -44,92 -43,-81 -44,-33 -44,-43 -43,119 -44,-65 -44,6 -43,-33 -44,54 -44,49 -43,-54 -44,59 -43,-97 -44,43 -44,16 -43,81 -44,-75 v -83 l 44,113 43,-86 44,-49 44,-27 43,119 44,-65 43,16 44,22 44,-119 43,43 h 44 l 44,103 43,-135 44,16 44,103 43,75 44,-118 43,-22 44,27 44,-16 43,97 44,-65 z"
     fill="#533762"
     id="path16" /><path
     d="m 1920,363 -44,21 -43,-37 -44,-81 -44,59 -43,-43 -44,81 -43,-38 -44,-76 -44,-10 -43,91 -44,-32 -44,-32 -43,-11 -44,65 -44,43 -43,-70 -44,48 -43,-54 -44,6 -44,21 -43,81 -44,-86 v -2 l 44,75 43,-81 44,-16 44,-43 43,97 44,-59 43,54 44,-49 44,-54 43,33 44,-6 44,65 43,-119 44,43 44,33 43,81 44,-92 43,-5 44,-22 44,54 43,49 44,-49 z"
     fill="#4f345d"
     id="path18" /><path
     d="m 1920,509 h -44 l -43,-81 -44,-108 -44,27 -43,102 -44,22 -43,-6 -44,-27 -44,-140 -43,103 -44,-22 -44,-5 -43,-108 -44,183 -44,6 -43,32 -44,-59 -43,-54 -44,-49 -44,108 -43,5 -44,49 V 307 l 44,86 43,-81 44,-21 44,-6 43,54 44,-48 43,70 44,-43 44,-65 43,11 44,32 44,32 43,-91 44,10 44,76 43,38 44,-81 43,43 44,-59 44,81 43,37 44,-21 z"
     fill="#4b3158"
     id="path20" /><path
     d="m 1920,536 -44,-6 -43,-27 -44,27 -44,-11 -43,-21 -44,27 -43,-11 -44,5 -44,-21 -43,11 -44,-11 h -44 l -43,11 -44,-17 -44,17 -43,-6 -44,16 -43,11 -44,-32 -44,-6 -43,49 -44,-27 v -29 l 44,-49 43,-5 44,-108 44,49 43,54 44,59 43,-32 44,-6 44,-183 43,108 44,5 44,22 43,-103 44,140 44,27 43,6 44,-22 43,-102 44,-27 44,108 43,81 h 44 z"
     fill="#462f53"
     id="path22" /><path
     d="m 1920,541 h -44 -43 -44 -44 -43 -44 -43 -44 -44 -43 -44 -44 -43 -44 -44 -43 -44 -43 -44 -44 -43 -44 v -29 l 44,27 43,-49 44,6 44,32 43,-11 44,-16 43,6 44,-17 44,17 43,-11 h 44 l 44,11 43,-11 44,21 44,-5 43,11 44,-27 43,21 44,11 44,-27 43,27 44,6 z"
     fill="#422c4e"
     id="path24" /><g
     id="g176"><path
       d="m 0,6 44,11 h 43 44 L 175,6 218,0 h 44 l 43,33 h 44 l 44,-21 43,5 44,-17 44,12 43,-12 44,28 44,-11 h 43 l 44,22 43,-6 h 44 l 44,-10 43,10 44,-10 V 0 H 916 873 829 785 742 698 655 611 567 524 480 436 393 349 305 262 218 175 131 87 44 0 Z"
       fill="#7e628d"
       id="path135" /><path
       d="m 0,23 44,32 43,-27 44,-5 44,27 43,-11 44,-16 43,48 44,-38 44,17 43,-11 44,5 44,-21 43,10 44,11 44,-21 43,-6 44,33 h 43 l 44,-17 44,17 43,16 44,-22 V 21 L 916,31 873,21 829,31 H 785 L 742,37 698,15 H 655 L 611,26 567,0 524,10 480,0 436,15 393,10 349,31 H 305 L 262,0 H 218 L 175,4 131,15 H 87 44 L 0,4 Z"
       fill="#775b87"
       id="path137" /><path
       d="m 0,158 h 44 l 43,-33 44,-27 44,-11 43,11 44,16 43,27 44,-102 44,59 43,60 44,-81 44,32 43,-43 44,124 44,-65 43,-65 44,49 43,-43 44,5 44,33 43,59 44,-97 V 42 L 916,64 873,48 829,31 785,48 H 742 L 698,15 655,21 611,42 567,31 524,21 480,42 436,37 393,48 349,31 305,69 262,21 218,37 175,48 131,21 87,26 44,53 0,21 Z"
       fill="#715480"
       id="path139" /><path
       d="m 0,185 44,-27 43,5 44,-22 44,-37 43,27 44,27 43,10 44,-118 44,59 43,65 44,-97 44,48 43,-43 44,119 44,-65 43,-76 44,71 43,-49 44,-11 44,49 43,48 44,-97 V 64 L 916,161 873,102 829,69 785,64 742,107 698,58 655,123 611,188 567,64 524,107 480,75 436,156 393,96 349,37 305,139 262,112 218,96 175,85 131,96 87,123 44,156 H 0 Z"
       fill="#6a4c7a"
       id="path141" /><path
       d="m 0,201 44,27 43,-49 44,16 44,-16 43,43 44,33 43,11 44,-162 44,5 43,92 44,-87 44,22 43,-22 44,98 44,-22 43,-32 44,64 43,-75 44,-11 44,65 43,54 44,-114 V 69 l -44,97 -43,-48 -44,-49 -44,11 -43,49 -44,-71 -43,76 -44,65 -44,-119 -43,43 -44,-48 -44,97 -43,-65 -44,-59 -44,118 -43,-10 -44,-27 -43,-27 -44,37 -44,22 -43,-5 -44,27 z"
       fill="#644573"
       id="path143" /><path
       d="m 0,201 44,75 43,-97 44,27 44,6 43,16 44,54 43,-16 44,-114 44,-16 43,108 44,-103 44,-5 43,-5 44,81 44,27 43,-49 44,86 43,-124 44,-5 44,65 43,86 44,-113 v -46 l -44,114 -43,-54 -44,-65 -44,11 -43,75 -44,-64 -43,32 -44,22 -44,-98 -43,22 -44,-22 -44,87 -43,-92 -44,-5 -44,162 -43,-11 -44,-33 -43,-43 -44,16 L 87,177 44,226 0,199 Z"
       fill="#5d3e6d"
       id="path145" /><path
       d="m 0,260 44,65 43,-97 44,16 44,-27 43,22 44,118 43,-75 44,-103 44,-16 43,135 44,-103 h 44 l 43,-43 44,119 44,-22 43,-16 44,65 43,-119 44,27 44,49 43,86 44,-113 v -45 l -44,113 -43,-86 -44,-65 -44,5 -43,124 -44,-86 -43,49 -44,-27 -44,-81 -43,5 -44,5 -44,103 -43,-108 -44,16 -44,114 -43,16 -44,-54 -43,-16 -44,-6 L 87,177 44,274 0,199 Z"
       fill="#583a67"
       id="path147" /><path
       d="m 0,298 44,49 43,-49 44,-54 44,22 43,5 44,92 43,-81 44,-33 44,-43 43,119 44,-65 44,6 43,-33 44,54 44,49 43,-54 44,59 43,-97 44,43 44,16 43,81 44,-75 v -83 l -44,113 -43,-86 -44,-49 -44,-27 -43,119 -44,-65 -43,16 -44,22 -44,-119 -43,43 H 480 L 436,296 393,161 349,177 305,280 262,355 218,237 175,215 131,242 87,226 44,323 0,258 Z"
       fill="#533762"
       id="path149" /><path
       d="m 0,363 44,21 43,-37 44,-81 44,59 43,-43 44,81 43,-38 44,-76 44,-10 43,91 44,-32 44,-32 43,-11 44,65 44,43 43,-70 44,48 43,-54 44,6 44,21 43,81 44,-86 v -2 l -44,75 -43,-81 -44,-16 -44,-43 -43,97 -44,-59 -43,54 -44,-49 -44,-54 -43,33 -44,-6 -44,65 -43,-119 -44,43 -44,33 -43,81 -44,-92 -43,-5 -44,-22 -44,54 -43,49 -44,-49 z"
       fill="#4f345d"
       id="path151" /><path
       d="m 0,509 h 44 l 43,-81 44,-108 44,27 43,102 44,22 43,-6 44,-27 44,-140 43,103 44,-22 44,-5 43,-108 44,183 44,6 43,32 44,-59 43,-54 44,-49 44,108 43,5 44,49 V 307 l -44,86 -43,-81 -44,-21 -44,-6 -43,54 -44,-48 -43,70 -44,-43 -44,-65 -43,11 -44,32 -44,32 -43,-91 -44,10 -44,76 -43,38 -44,-81 -43,43 -44,-59 -44,81 -43,37 -44,-21 z"
       fill="#4b3158"
       id="path153" /><path
       d="m 0,536 44,-6 43,-27 44,27 44,-11 43,-21 44,27 43,-11 44,5 44,-21 43,11 44,-11 h 44 l 43,11 44,-17 44,17 43,-6 44,16 43,11 44,-32 44,-6 43,49 44,-27 v -29 l -44,-49 -43,-5 -44,-108 -44,49 -43,54 -44,59 -43,-32 -44,-6 -44,-183 -43,108 -44,5 -44,22 -43,-103 -44,140 -44,27 -43,6 L 218,447 175,345 131,318 87,426 44,507 H 0 Z"
       fill="#462f53"
       id="path155" /><path
       d="m 0,541 h 44 43 44 44 43 44 43 44 44 43 44 44 43 44 44 43 44 43 44 44 43 44 v -29 l -44,27 -43,-49 -44,6 -44,32 -43,-11 -44,-16 -43,6 -44,-17 -44,17 -43,-11 h -44 l -44,11 -43,-11 -44,21 -44,-5 -43,11 -44,-27 -43,21 -44,11 -44,-27 -43,27 -44,6 z"
       fill="#422c4e"
       id="path157" /></g><g
     id="g219"
     transform="translate(1920)"><path
       d="m 0,6 44,11 h 43 44 L 175,6 218,0 h 44 l 43,33 h 44 l 44,-21 43,5 44,-17 44,12 43,-12 44,28 44,-11 h 43 l 44,22 43,-6 h 44 l 44,-10 43,10 44,-10 V 0 H 916 873 829 785 742 698 655 611 567 524 480 436 393 349 305 262 218 175 131 87 44 0 Z"
       fill="#7e628d"
       id="path178" /><path
       d="m 0,23 44,32 43,-27 44,-5 44,27 43,-11 44,-16 43,48 44,-38 44,17 43,-11 44,5 44,-21 43,10 44,11 44,-21 43,-6 44,33 h 43 l 44,-17 44,17 43,16 44,-22 V 21 L 916,31 873,21 829,31 H 785 L 742,37 698,15 H 655 L 611,26 567,0 524,10 480,0 436,15 393,10 349,31 H 305 L 262,0 H 218 L 175,4 131,15 H 87 44 L 0,4 Z"
       fill="#775b87"
       id="path180" /><path
       d="m 0,158 h 44 l 43,-33 44,-27 44,-11 43,11 44,16 43,27 44,-102 44,59 43,60 44,-81 44,32 43,-43 44,124 44,-65 43,-65 44,49 43,-43 44,5 44,33 43,59 44,-97 V 42 L 916,64 873,48 829,31 785,48 H 742 L 698,15 655,21 611,42 567,31 524,21 480,42 436,37 393,48 349,31 305,69 262,21 218,37 175,48 131,21 87,26 44,53 0,21 Z"
       fill="#715480"
       id="path182" /><path
       d="m 0,185 44,-27 43,5 44,-22 44,-37 43,27 44,27 43,10 44,-118 44,59 43,65 44,-97 44,48 43,-43 44,119 44,-65 43,-76 44,71 43,-49 44,-11 44,49 43,48 44,-97 V 64 L 916,161 873,102 829,69 785,64 742,107 698,58 655,123 611,188 567,64 524,107 480,75 436,156 393,96 349,37 305,139 262,112 218,96 175,85 131,96 87,123 44,156 H 0 Z"
       fill="#6a4c7a"
       id="path184" /><path
       d="m 0,201 44,27 43,-49 44,16 44,-16 43,43 44,33 43,11 44,-162 44,5 43,92 44,-87 44,22 43,-22 44,98 44,-22 43,-32 44,64 43,-75 44,-11 44,65 43,54 44,-114 V 69 l -44,97 -43,-48 -44,-49 -44,11 -43,49 -44,-71 -43,76 -44,65 -44,-119 -43,43 -44,-48 -44,97 -43,-65 -44,-59 -44,118 -43,-10 -44,-27 -43,-27 -44,37 -44,22 -43,-5 -44,27 z"
       fill="#644573"
       id="path186" /><path
       d="m 0,201 44,75 43,-97 44,27 44,6 43,16 44,54 43,-16 44,-114 44,-16 43,108 44,-103 44,-5 43,-5 44,81 44,27 43,-49 44,86 43,-124 44,-5 44,65 43,86 44,-113 v -46 l -44,114 -43,-54 -44,-65 -44,11 -43,75 -44,-64 -43,32 -44,22 -44,-98 -43,22 -44,-22 -44,87 -43,-92 -44,-5 -44,162 -43,-11 -44,-33 -43,-43 -44,16 L 87,177 44,226 0,199 Z"
       fill="#5d3e6d"
       id="path188" /><path
       d="m 0,260 44,65 43,-97 44,16 44,-27 43,22 44,118 43,-75 44,-103 44,-16 43,135 44,-103 h 44 l 43,-43 44,119 44,-22 43,-16 44,65 43,-119 44,27 44,49 43,86 44,-113 v -45 l -44,113 -43,-86 -44,-65 -44,5 -43,124 -44,-86 -43,49 -44,-27 -44,-81 -43,5 -44,5 -44,103 -43,-108 -44,16 -44,114 -43,16 -44,-54 -43,-16 -44,-6 L 87,177 44,274 0,199 Z"
       fill="#583a67"
       id="path190" /><path
       d="m 0,298 44,49 43,-49 44,-54 44,22 43,5 44,92 43,-81 44,-33 44,-43 43,119 44,-65 44,6 43,-33 44,54 44,49 43,-54 44,59 43,-97 44,43 44,16 43,81 44,-75 v -83 l -44,113 -43,-86 -44,-49 -44,-27 -43,119 -44,-65 -43,16 -44,22 -44,-119 -43,43 H 480 L 436,296 393,161 349,177 305,280 262,355 218,237 175,215 131,242 87,226 44,323 0,258 Z"
       fill="#533762"
       id="path192" /><path
       d="m 0,363 44,21 43,-37 44,-81 44,59 43,-43 44,81 43,-38 44,-76 44,-10 43,91 44,-32 44,-32 43,-11 44,65 44,43 43,-70 44,48 43,-54 44,6 44,21 43,81 44,-86 v -2 l -44,75 -43,-81 -44,-16 -44,-43 -43,97 -44,-59 -43,54 -44,-49 -44,-54 -43,33 -44,-6 -44,65 -43,-119 -44,43 -44,33 -43,81 -44,-92 -43,-5 -44,-22 -44,54 -43,49 -44,-49 z"
       fill="#4f345d"
       id="path194" /><path
       d="m 0,509 h 44 l 43,-81 44,-108 44,27 43,102 44,22 43,-6 44,-27 44,-140 43,103 44,-22 44,-5 43,-108 44,183 44,6 43,32 44,-59 43,-54 44,-49 44,108 43,5 44,49 V 307 l -44,86 -43,-81 -44,-21 -44,-6 -43,54 -44,-48 -43,70 -44,-43 -44,-65 -43,11 -44,32 -44,32 -43,-91 -44,10 -44,76 -43,38 -44,-81 -43,43 -44,-59 -44,81 -43,37 -44,-21 z"
       fill="#4b3158"
       id="path196" /><path
       d="m 0,536 44,-6 43,-27 44,27 44,-11 43,-21 44,27 43,-11 44,5 44,-21 43,11 44,-11 h 44 l 43,11 44,-17 44,17 43,-6 44,16 43,11 44,-32 44,-6 43,49 44,-27 v -29 l -44,-49 -43,-5 -44,-108 -44,49 -43,54 -44,59 -43,-32 -44,-6 -44,-183 -43,108 -44,5 -44,22 -43,-103 -44,140 -44,27 -43,6 L 218,447 175,345 131,318 87,426 44,507 H 0 Z"
       fill="#462f53"
       id="path198" /><path
       d="m 0,541 h 44 43 44 44 43 44 43 44 44 43 44 44 43 44 44 43 44 43 44 44 43 44 v -29 l -44,27 -43,-49 -44,6 -44,32 -43,-11 -44,-16 -43,6 -44,-17 -44,17 -43,-11 h -44 l -44,11 -43,-11 -44,21 -44,-5 -43,11 -44,-27 -43,21 -44,11 -44,-27 -43,27 -44,6 z"
       fill="#422c4e"
       id="path200" /></g></svg>
