<?xml version="1.0" encoding="UTF-8" standalone="no"?>
<svg
   id="visual"
   viewBox="0 0 2880 540"
   width="2880"
   height="540"
   version="1.1"
   sodipodi:docname="background.svg"
   xml:space="preserve"
   inkscape:version="1.2.2 (732a01da63, 2022-12-09)"
   xmlns:inkscape="http://www.inkscape.org/namespaces/inkscape"
   xmlns:sodipodi="http://sodipodi.sourceforge.net/DTD/sodipodi-0.dtd"
   xmlns="http://www.w3.org/2000/svg"
   xmlns:svg="http://www.w3.org/2000/svg"><defs
     id="defs29" /><sodipodi:namedview
     id="namedview27"
     pagecolor="#505050"
     bordercolor="#eeeeee"
     borderopacity="1"
     inkscape:showpageshadow="0"
     inkscape:pageopacity="0"
     inkscape:pagecheckerboard="0"
     inkscape:deskcolor="#505050"
     showgrid="false"
     inkscape:zoom="0.44562459"
     inkscape:cx="1450.7727"
     inkscape:cy="244.60051"
     inkscape:window-width="1920"
     inkscape:window-height="1017"
     inkscape:window-x="1072"
     inkscape:window-y="580"
     inkscape:window-maximized="1"
     inkscape:current-layer="visual" /><path
     d="m 0,33 42,11 41,-16 42,5 42,-5 42,-5 h 41 l 42,-6 42,11 42,-11 41,22 42,5 42,-5 42,5 41,-11 h 42 42 42 l 41,-16 42,11 42,16 42,-16 41,-11 42,16 V 0 H 918 877 835 793 751 710 668 626 584 543 501 459 417 376 334 292 250 209 167 125 83 42 0 Z"
     fill="#9e90fa"
     id="path2" /><path
     d="m 0,77 42,5 41,-32 42,21 42,-11 h 42 l 41,6 42,11 42,-27 42,-6 41,33 h 42 l 42,5 h 42 l 41,-16 h 42 42 l 42,-11 h 41 42 l 42,11 42,-11 41,5 42,-5 V 31 L 918,15 877,26 835,42 793,26 751,15 710,31 H 668 626 584 L 543,42 501,37 459,42 417,37 376,15 334,26 292,15 250,21 H 209 L 167,26 125,31 83,26 42,42 0,31 Z"
     fill="#9687f9"
     id="path4" /><path
     d="m 0,109 42,11 41,-33 42,-5 42,5 42,-16 41,22 42,16 42,-22 42,-5 41,22 42,-17 42,22 42,-11 h 41 l 42,6 42,-27 42,5 41,-11 h 42 l 42,27 42,-32 41,16 h 42 V 53 L 918,58 877,53 835,64 793,53 H 751 710 L 668,64 H 626 584 L 543,80 H 501 L 459,75 H 417 L 376,42 334,48 292,75 250,64 209,58 H 167 L 125,69 83,48 42,80 0,75 Z"
     fill="#8e7ef8"
     id="path6" /><path
     d="m 0,131 42,10 41,-27 42,-16 42,11 42,-16 41,21 42,6 42,-11 42,-11 41,33 42,-33 42,22 h 42 l 41,-11 42,11 42,-22 42,11 41,-16 42,-6 42,27 42,-21 41,16 42,-5 V 80 H 918 L 877,64 835,96 793,69 h -42 l -41,11 -42,-5 -42,27 -42,-6 H 543 L 501,107 459,85 417,102 376,80 334,85 292,107 250,91 209,69 167,85 125,80 83,85 42,118 0,107 Z"
     fill="#8674f6"
     id="path8" /><path
     d="m 0,271 42,-32 41,-33 42,-27 42,-32 42,27 41,38 42,59 42,-92 42,27 41,54 42,-54 42,43 42,-48 41,11 h 42 l 42,-17 42,103 41,-59 42,-27 42,27 42,-87 41,54 42,-16 v -88 l -42,5 -41,-16 -42,21 -42,-27 -42,6 -41,16 -42,-11 -42,22 -42,-11 -41,11 H 501 L 459,96 417,129 376,96 334,107 292,118 250,112 209,91 167,107 125,96 83,112 42,139 0,129 Z"
     fill="#7e6bf5"
     id="path10" /><path
     d="m 0,309 42,-49 41,-21 42,-27 42,-33 42,27 41,22 42,65 42,-103 42,38 41,43 42,-38 42,33 42,-54 41,27 42,-6 42,-5 42,102 41,-54 42,-27 h 42 l 42,-70 41,49 42,-27 v -13 l -42,16 -41,-54 -42,87 -42,-27 -42,27 -41,59 -42,-103 -42,17 h -42 l -41,-11 -42,48 -42,-43 -42,54 -41,-54 -42,-27 -42,92 -42,-59 -41,-38 -42,-27 -42,32 -42,27 -41,33 -42,32 z"
     fill="#7562f3"
     id="path12" /><path
     d="m 0,363 42,-11 41,-27 42,-76 h 42 l 42,17 41,43 42,27 42,-43 42,-11 41,54 42,-49 42,43 42,-70 41,76 42,-22 42,-43 42,103 41,-38 42,-11 h 42 l 42,-81 41,49 42,27 V 199 l -42,27 -41,-49 -42,70 h -42 l -42,27 -41,54 -42,-102 -42,5 -42,6 -41,-27 -42,54 -42,-33 -42,38 -41,-43 -42,-38 -42,103 -42,-65 -41,-22 -42,-27 -42,33 -42,27 -41,21 -42,49 z"
     fill="#6e5aed"
     id="path14" /><path
     d="m 0,417 42,11 41,-6 42,-54 42,6 42,-6 41,27 42,22 h 42 l 42,-16 41,21 h 42 l 42,-27 42,38 h 41 l 42,-43 42,11 42,59 41,-54 42,11 42,-11 42,-16 41,43 42,16 V 318 l -42,-27 -41,-49 -42,81 h -42 l -42,11 -41,38 -42,-103 -42,43 -42,22 -41,-76 -42,70 -42,-43 -42,49 -41,-54 -42,11 -42,43 -42,-27 -41,-43 -42,-17 H 125 L 83,323 42,350 0,361 Z"
     fill="#6854e2"
     id="path16" /><path
     d="m 0,428 42,16 41,-11 42,-43 42,11 h 42 l 41,27 42,5 42,-5 42,5 41,5 42,6 42,-38 42,38 41,16 42,-54 42,16 42,54 41,-48 42,21 42,-11 42,-16 41,22 42,21 v -18 l -42,-16 -41,-43 -42,16 -42,11 -42,-11 -41,54 -42,-59 -42,-11 -42,43 h -41 l -42,-38 -42,27 h -42 l -41,-21 -42,16 h -42 l -42,-22 -41,-27 -42,6 -42,-6 -42,54 -41,6 -42,-11 z"
     fill="#624fd7"
     id="path18" /><path
     d="m 0,492 42,11 41,-38 42,-10 42,10 42,6 41,-11 42,16 42,-16 42,5 41,6 42,5 h 42 l 42,6 41,21 42,-27 42,6 42,27 41,-33 42,16 42,-5 42,-16 41,16 42,5 v -29 l -42,-21 -41,-22 -42,16 -42,11 -42,-21 -41,48 -42,-54 -42,-16 -42,54 -41,-16 -42,-38 -42,38 -42,-6 -41,-5 -42,-5 -42,5 -42,-5 -41,-27 H 167 L 125,388 83,431 42,442 0,426 Z"
     fill="#5d49cd"
     id="path20" /><path
     d="m 0,514 h 42 l 41,-32 42,5 42,5 42,6 41,-11 h 42 l 42,-5 h 42 l 41,21 42,6 42,-6 42,6 41,5 42,-16 42,11 42,10 41,-21 42,21 h 42 l 42,-27 41,17 42,5 v -24 l -42,-5 -41,-16 -42,16 -42,5 -42,-16 -41,33 -42,-27 -42,-6 -42,27 -41,-21 -42,-6 h -42 l -42,-5 -41,-6 -42,-5 -42,16 -42,-16 -41,11 -42,-6 -42,-10 -42,10 -41,38 -42,-11 z"
     fill="#5743c2"
     id="path22" /><path
     d="m 0,541 h 42 41 42 42 42 41 42 42 42 41 42 42 42 41 42 42 42 41 42 42 42 41 42 v -29 l -42,-5 -41,-17 -42,27 h -42 l -42,-21 -41,21 -42,-10 -42,-11 -42,16 -41,-5 -42,-6 -42,6 -42,-6 -41,-21 h -42 l -42,5 h -42 l -41,11 -42,-6 -42,-5 -42,-5 -41,32 H 0 Z"
     fill="#513eb8"
     id="path24" /><g
     id="g162"
     transform="translate(960)"><path
       d="M 960,33 918,44 877,28 835,33 793,28 751,23 H 710 L 668,17 626,28 584,17 543,39 501,44 459,39 417,44 376,33 H 334 292 250 L 209,17 167,28 125,44 83,28 42,17 0,33 V 0 h 42 41 42 42 42 41 42 42 42 41 42 42 42 41 42 42 42 41 42 42 42 41 42 z"
       fill="#9e90fa"
       id="path2-7" /><path
       d="M 960,77 918,82 877,50 835,71 793,60 h -42 l -41,6 -42,11 -42,-27 -42,-6 -41,33 h -42 l -42,5 H 417 L 376,66 H 334 292 L 250,55 H 209 167 L 125,66 83,55 42,60 0,55 V 31 l 42,-16 41,11 42,16 42,-16 42,-11 41,16 h 42 42 42 l 41,11 42,-5 42,5 42,-5 41,-22 42,11 42,-11 42,6 h 41 l 42,5 42,5 42,-5 41,16 42,-11 z"
       fill="#9687f9"
       id="path4-1" /><path
       d="m 960,109 -42,11 -41,-33 -42,-5 -42,5 -42,-16 -41,22 -42,16 -42,-22 -42,-5 -41,22 -42,-17 -42,22 -42,-11 h -41 l -42,6 -42,-27 -42,5 -41,-11 H 167 L 125,98 83,66 42,82 H 0 V 53 l 42,5 41,-5 42,11 42,-11 h 42 41 l 42,11 h 42 42 l 41,16 h 42 l 42,-5 h 42 l 41,-33 42,6 42,27 42,-11 41,-6 h 42 l 42,11 42,-21 41,32 42,-5 z"
       fill="#8e7ef8"
       id="path6-8" /><path
       d="m 960,131 -42,10 -41,-27 -42,-16 -42,11 -42,-16 -41,21 -42,6 -42,-11 -42,-11 -41,33 -42,-33 -42,22 H 417 L 376,109 334,120 292,98 250,109 209,93 167,87 125,114 83,93 42,109 0,104 V 80 h 42 l 41,-16 42,32 42,-27 h 42 l 41,11 42,-5 42,27 42,-6 h 41 l 42,11 42,-22 42,17 41,-22 42,5 42,22 42,-16 41,-22 42,16 42,-5 42,5 41,33 42,-11 z"
       fill="#8674f6"
       id="path8-4" /><path
       d="m 960,271 -42,-32 -41,-33 -42,-27 -42,-32 -42,27 -41,38 -42,59 -42,-92 -42,27 -41,54 -42,-54 -42,43 -42,-48 -41,11 H 334 L 292,195 250,298 209,239 167,212 125,239 83,152 42,206 0,190 v -88 l 42,5 41,-16 42,21 42,-27 42,6 41,16 42,-11 42,22 42,-11 41,11 h 42 l 42,-22 42,33 41,-33 42,11 42,11 42,-6 41,-21 42,16 42,-11 42,16 41,27 42,-10 z"
       fill="#7e6bf5"
       id="path10-5" /><path
       d="m 960,309 -42,-49 -41,-21 -42,-27 -42,-33 -42,27 -41,22 -42,65 -42,-103 -42,38 -41,43 -42,-38 -42,33 -42,-54 -41,27 -42,-6 -42,-5 -42,102 -41,-54 -42,-27 H 125 L 83,179 42,228 0,201 v -13 l 42,16 41,-54 42,87 42,-27 42,27 41,59 42,-103 42,17 h 42 l 41,-11 42,48 42,-43 42,54 41,-54 42,-27 42,92 42,-59 41,-38 42,-27 42,32 42,27 41,33 42,32 z"
       fill="#7562f3"
       id="path12-8" /><path
       d="m 960,363 -42,-11 -41,-27 -42,-76 h -42 l -42,17 -41,43 -42,27 -42,-43 -42,-11 -41,54 -42,-49 -42,43 -42,-70 -41,76 -42,-22 -42,-43 -42,103 -41,-38 -42,-11 H 125 L 83,244 42,293 0,320 V 199 l 42,27 41,-49 42,70 h 42 l 42,27 41,54 42,-102 42,5 42,6 41,-27 42,54 42,-33 42,38 41,-43 42,-38 42,103 42,-65 41,-22 42,-27 42,33 42,27 41,21 42,49 z"
       fill="#6e5aed"
       id="path14-9" /><path
       d="m 960,417 -42,11 -41,-6 -42,-54 -42,6 -42,-6 -41,27 -42,22 h -42 l -42,-16 -41,21 h -42 l -42,-27 -42,38 h -41 l -42,-43 -42,11 -42,59 -41,-54 -42,11 L 125,406 83,390 42,433 0,449 V 318 l 42,-27 41,-49 42,81 h 42 l 42,11 41,38 42,-103 42,43 42,22 41,-76 42,70 42,-43 42,49 41,-54 42,11 42,43 42,-27 41,-43 42,-17 h 42 l 42,76 41,27 42,11 z"
       fill="#6854e2"
       id="path16-0" /><path
       d="m 960,428 -42,16 -41,-11 -42,-43 -42,11 h -42 l -41,27 -42,5 -42,-5 -42,5 -41,5 -42,6 -42,-38 -42,38 -41,16 -42,-54 -42,16 -42,54 -41,-48 -42,21 -42,-11 -42,-16 -41,22 -42,21 v -18 l 42,-16 41,-43 42,16 42,11 42,-11 41,54 42,-59 42,-11 42,43 h 41 l 42,-38 42,27 h 42 l 41,-21 42,16 h 42 l 42,-22 41,-27 42,6 42,-6 42,54 41,6 42,-11 z"
       fill="#624fd7"
       id="path18-9" /><path
       d="m 960,492 -42,11 -41,-38 -42,-10 -42,10 -42,6 -41,-11 -42,16 -42,-16 -42,5 -41,6 -42,5 h -42 l -42,6 -41,21 -42,-27 -42,6 -42,27 -41,-33 -42,16 -42,-5 -42,-16 -41,16 -42,5 v -29 l 42,-21 41,-22 42,16 42,11 42,-21 41,48 42,-54 42,-16 42,54 41,-16 42,-38 42,38 42,-6 41,-5 42,-5 42,5 42,-5 41,-27 h 42 l 42,-11 42,43 41,11 42,-16 z"
       fill="#5d49cd"
       id="path20-9" /><path
       d="m 960,514 h -42 l -41,-32 -42,5 -42,5 -42,6 -41,-11 h -42 l -42,-5 h -42 l -41,21 -42,6 -42,-6 -42,6 -41,5 -42,-16 -42,11 -42,10 -41,-21 -42,21 H 125 L 83,492 42,509 0,514 v -24 l 42,-5 41,-16 42,16 42,5 42,-16 41,33 42,-27 42,-6 42,27 41,-21 42,-6 h 42 l 42,-5 41,-6 42,-5 42,16 42,-16 41,11 42,-6 42,-10 42,10 41,38 42,-11 z"
       fill="#5743c2"
       id="path22-7" /><path
       d="M 960,541 H 918 877 835 793 751 710 668 626 584 543 501 459 417 376 334 292 250 209 167 125 83 42 0 v -29 l 42,-5 41,-17 42,27 h 42 l 42,-21 41,21 42,-10 42,-11 42,16 41,-5 42,-6 42,6 42,-6 41,-21 h 42 l 42,5 h 42 l 41,11 42,-6 42,-5 42,-5 41,32 h 42 z"
       fill="#513eb8"
       id="path24-2" /></g><g
     id="g205"
     transform="translate(1920)"><path
       d="m 0,33 42,11 41,-16 42,5 42,-5 42,-5 h 41 l 42,-6 42,11 42,-11 41,22 42,5 42,-5 42,5 41,-11 h 42 42 42 l 41,-16 42,11 42,16 42,-16 41,-11 42,16 V 0 H 918 877 835 793 751 710 668 626 584 543 501 459 417 376 334 292 250 209 167 125 83 42 0 Z"
       fill="#9e90fa"
       id="path164" /><path
       d="m 0,77 42,5 41,-32 42,21 42,-11 h 42 l 41,6 42,11 42,-27 42,-6 41,33 h 42 l 42,5 h 42 l 41,-16 h 42 42 l 42,-11 h 41 42 l 42,11 42,-11 41,5 42,-5 V 31 L 918,15 877,26 835,42 793,26 751,15 710,31 H 668 626 584 L 543,42 501,37 459,42 417,37 376,15 334,26 292,15 250,21 H 209 L 167,26 125,31 83,26 42,42 0,31 Z"
       fill="#9687f9"
       id="path166" /><path
       d="m 0,109 42,11 41,-33 42,-5 42,5 42,-16 41,22 42,16 42,-22 42,-5 41,22 42,-17 42,22 42,-11 h 41 l 42,6 42,-27 42,5 41,-11 h 42 l 42,27 42,-32 41,16 h 42 V 53 L 918,58 877,53 835,64 793,53 H 751 710 L 668,64 H 626 584 L 543,80 H 501 L 459,75 H 417 L 376,42 334,48 292,75 250,64 209,58 H 167 L 125,69 83,48 42,80 0,75 Z"
       fill="#8e7ef8"
       id="path168" /><path
       d="m 0,131 42,10 41,-27 42,-16 42,11 42,-16 41,21 42,6 42,-11 42,-11 41,33 42,-33 42,22 h 42 l 41,-11 42,11 42,-22 42,11 41,-16 42,-6 42,27 42,-21 41,16 42,-5 V 80 H 918 L 877,64 835,96 793,69 h -42 l -41,11 -42,-5 -42,27 -42,-6 H 543 L 501,107 459,85 417,102 376,80 334,85 292,107 250,91 209,69 167,85 125,80 83,85 42,118 0,107 Z"
       fill="#8674f6"
       id="path170" /><path
       d="m 0,271 42,-32 41,-33 42,-27 42,-32 42,27 41,38 42,59 42,-92 42,27 41,54 42,-54 42,43 42,-48 41,11 h 42 l 42,-17 42,103 41,-59 42,-27 42,27 42,-87 41,54 42,-16 v -88 l -42,5 -41,-16 -42,21 -42,-27 -42,6 -41,16 -42,-11 -42,22 -42,-11 -41,11 H 501 L 459,96 417,129 376,96 334,107 292,118 250,112 209,91 167,107 125,96 83,112 42,139 0,129 Z"
       fill="#7e6bf5"
       id="path172" /><path
       d="m 0,309 42,-49 41,-21 42,-27 42,-33 42,27 41,22 42,65 42,-103 42,38 41,43 42,-38 42,33 42,-54 41,27 42,-6 42,-5 42,102 41,-54 42,-27 h 42 l 42,-70 41,49 42,-27 v -13 l -42,16 -41,-54 -42,87 -42,-27 -42,27 -41,59 -42,-103 -42,17 h -42 l -41,-11 -42,48 -42,-43 -42,54 -41,-54 -42,-27 -42,92 -42,-59 -41,-38 -42,-27 -42,32 -42,27 -41,33 -42,32 z"
       fill="#7562f3"
       id="path174" /><path
       d="m 0,363 42,-11 41,-27 42,-76 h 42 l 42,17 41,43 42,27 42,-43 42,-11 41,54 42,-49 42,43 42,-70 41,76 42,-22 42,-43 42,103 41,-38 42,-11 h 42 l 42,-81 41,49 42,27 V 199 l -42,27 -41,-49 -42,70 h -42 l -42,27 -41,54 -42,-102 -42,5 -42,6 -41,-27 -42,54 -42,-33 -42,38 -41,-43 -42,-38 -42,103 -42,-65 -41,-22 -42,-27 -42,33 -42,27 -41,21 -42,49 z"
       fill="#6e5aed"
       id="path176" /><path
       d="m 0,417 42,11 41,-6 42,-54 42,6 42,-6 41,27 42,22 h 42 l 42,-16 41,21 h 42 l 42,-27 42,38 h 41 l 42,-43 42,11 42,59 41,-54 42,11 42,-11 42,-16 41,43 42,16 V 318 l -42,-27 -41,-49 -42,81 h -42 l -42,11 -41,38 -42,-103 -42,43 -42,22 -41,-76 -42,70 -42,-43 -42,49 -41,-54 -42,11 -42,43 -42,-27 -41,-43 -42,-17 H 125 L 83,323 42,350 0,361 Z"
       fill="#6854e2"
       id="path178" /><path
       d="m 0,428 42,16 41,-11 42,-43 42,11 h 42 l 41,27 42,5 42,-5 42,5 41,5 42,6 42,-38 42,38 41,16 42,-54 42,16 42,54 41,-48 42,21 42,-11 42,-16 41,22 42,21 v -18 l -42,-16 -41,-43 -42,16 -42,11 -42,-11 -41,54 -42,-59 -42,-11 -42,43 h -41 l -42,-38 -42,27 h -42 l -41,-21 -42,16 h -42 l -42,-22 -41,-27 -42,6 -42,-6 -42,54 -41,6 -42,-11 z"
       fill="#624fd7"
       id="path180" /><path
       d="m 0,492 42,11 41,-38 42,-10 42,10 42,6 41,-11 42,16 42,-16 42,5 41,6 42,5 h 42 l 42,6 41,21 42,-27 42,6 42,27 41,-33 42,16 42,-5 42,-16 41,16 42,5 v -29 l -42,-21 -41,-22 -42,16 -42,11 -42,-21 -41,48 -42,-54 -42,-16 -42,54 -41,-16 -42,-38 -42,38 -42,-6 -41,-5 -42,-5 -42,5 -42,-5 -41,-27 H 167 L 125,388 83,431 42,442 0,426 Z"
       fill="#5d49cd"
       id="path182" /><path
       d="m 0,514 h 42 l 41,-32 42,5 42,5 42,6 41,-11 h 42 l 42,-5 h 42 l 41,21 42,6 42,-6 42,6 41,5 42,-16 42,11 42,10 41,-21 42,21 h 42 l 42,-27 41,17 42,5 v -24 l -42,-5 -41,-16 -42,16 -42,5 -42,-16 -41,33 -42,-27 -42,-6 -42,27 -41,-21 -42,-6 h -42 l -42,-5 -41,-6 -42,-5 -42,16 -42,-16 -41,11 -42,-6 -42,-10 -42,10 -41,38 -42,-11 z"
       fill="#5743c2"
       id="path184" /><path
       d="m 0,541 h 42 41 42 42 42 41 42 42 42 41 42 42 42 41 42 42 42 41 42 42 42 41 42 v -29 l -42,-5 -41,-17 -42,27 h -42 l -42,-21 -41,21 -42,-10 -42,-11 -42,16 -41,-5 -42,-6 -42,6 -42,-6 -41,-21 h -42 l -42,5 h -42 l -41,11 -42,-6 -42,-5 -42,-5 -41,32 H 0 Z"
       fill="#513eb8"
       id="path186" /></g></svg>
