<?xml version="1.0" encoding="UTF-8" standalone="no"?>
<svg
   id="visual"
   viewBox="0 0 2880 540"
   width="2880"
   height="540"
   version="1.1"
   sodipodi:docname="background2.svg"
   xml:space="preserve"
   inkscape:version="1.2.2 (732a01da63, 2022-12-09)"
   xmlns:inkscape="http://www.inkscape.org/namespaces/inkscape"
   xmlns:sodipodi="http://sodipodi.sourceforge.net/DTD/sodipodi-0.dtd"
   xmlns="http://www.w3.org/2000/svg"
   xmlns:svg="http://www.w3.org/2000/svg"><defs
     id="defs29" /><sodipodi:namedview
     id="namedview27"
     pagecolor="#505050"
     bordercolor="#eeeeee"
     borderopacity="1"
     inkscape:showpageshadow="0"
     inkscape:pageopacity="0"
     inkscape:pagecheckerboard="0"
     inkscape:deskcolor="#505050"
     showgrid="false"
     inkscape:zoom="0.44562459"
     inkscape:cx="1347.5468"
     inkscape:cy="148.10673"
     inkscape:window-width="1920"
     inkscape:window-height="1017"
     inkscape:window-x="1072"
     inkscape:window-y="580"
     inkscape:window-maximized="1"
     inkscape:current-layer="visual" /><path
     d="m 1920,6 -42,65 -41,49 -42,-6 -42,-81 -42,6 -41,86 -42,-108 h -42 l -42,76 -41,59 -42,-81 -42,-54 -42,27 -41,11 -42,-22 -42,49 -42,-59 -41,59 -42,-27 -42,5 -42,-43 -41,-5 -42,27 V 0 h 42 41 42 42 42 41 42 42 42 41 42 42 42 41 42 42 42 41 42 42 42 41 42 z"
     fill="#ada3e2"
     id="path2" /><path
     d="m 1920,120 -42,11 -41,97 -42,-81 -42,-33 -42,-54 -41,162 -42,-59 -42,38 -42,-38 -41,124 -42,-173 -42,125 -42,-92 h -41 l -42,11 -42,37 -42,-27 -41,54 -42,-59 -42,27 -42,65 -41,-130 -42,22 V 37 l 42,-27 41,5 42,43 42,-5 42,27 41,-59 42,59 42,-49 42,22 41,-11 42,-27 42,54 42,81 41,-59 42,-76 h 42 l 42,108 41,-86 42,-6 42,81 42,6 41,-49 42,-65 z"
     fill="#a69cdf"
     id="path4" /><path
     d="m 1920,131 -42,16 -41,124 -42,-113 -42,-22 -42,-32 -41,135 -42,-33 -42,16 -42,-37 -41,113 -42,-140 -42,86 -42,-70 -41,11 -42,10 -42,6 -42,-27 -41,59 -42,-48 -42,37 -42,44 -41,-103 -42,16 v -34 l 42,-22 41,130 42,-65 42,-27 42,59 41,-54 42,27 42,-37 42,-11 h 41 l 42,92 42,-125 42,173 41,-124 42,38 42,-38 42,59 41,-162 42,54 42,33 42,81 41,-97 42,-11 z"
     fill="#a095dd"
     id="path6" /><path
     d="m 1920,217 -42,81 -41,38 -42,-6 -42,-81 -42,-16 -41,119 -42,-59 -42,16 -42,-22 -41,87 -42,-65 -42,-43 -42,59 -41,-43 -42,-43 -42,21 -42,27 -41,38 -42,-22 -42,6 h -42 l -41,-43 -42,-6 v -83 l 42,-16 41,103 42,-44 42,-37 42,48 41,-59 42,27 42,-6 42,-10 41,-11 42,70 42,-86 42,140 41,-113 42,37 42,-16 42,33 41,-135 42,32 42,22 42,113 41,-124 42,-16 z"
     fill="#998eda"
     id="path8" /><path
     d="m 1920,239 -42,108 -41,5 h -42 l -42,-54 -42,-49 -41,125 -42,-71 -42,54 -42,-54 -41,103 -42,-70 -42,-43 -42,64 -41,-70 -42,-11 -42,11 -42,38 -41,32 -42,-43 -42,27 -42,-11 -41,-43 -42,-21 v -8 l 42,6 41,43 h 42 l 42,-6 42,22 41,-38 42,-27 42,-21 42,43 41,43 42,-59 42,43 42,65 41,-87 42,22 42,-16 42,59 41,-119 42,16 42,81 42,6 41,-38 42,-81 z"
     fill="#9287d7"
     id="path10" /><path
     d="m 1920,298 -42,65 -41,11 -42,21 -42,-48 -42,-49 -41,92 -42,-38 -42,16 -42,-54 -41,141 -42,-65 -42,-43 -42,37 -41,-37 -42,-17 -42,-5 -42,49 -41,21 -42,-21 -42,27 -42,-49 -41,-22 -42,-21 v -45 l 42,21 41,43 42,11 42,-27 42,43 41,-32 42,-38 42,-11 42,11 41,70 42,-64 42,43 42,70 41,-103 42,54 42,-54 42,71 41,-125 42,49 42,54 h 42 l 41,-5 42,-108 z"
     fill="#8b7fd4"
     id="path12" /><path
     d="m 1920,368 -42,49 -41,-33 -42,71 -42,-76 -42,-11 -41,103 -42,-27 -42,-70 -42,-27 -41,124 -42,-43 -42,-6 -42,22 -41,-6 -42,-48 -42,-22 -42,38 -41,-5 -42,-6 -42,11 -42,16 -41,-16 -42,-11 v -88 l 42,21 41,22 42,49 42,-27 42,21 41,-21 42,-49 42,5 42,17 41,37 42,-37 42,43 42,65 41,-141 42,54 42,-16 42,38 41,-92 42,49 42,48 42,-21 41,-11 42,-65 z"
     fill="#8479ce"
     id="path14" /><path
     d="m 1920,401 -42,16 -41,-22 -42,70 -42,-54 -42,-10 -41,75 -42,6 -42,-71 -42,-32 -41,108 -42,-43 -42,5 -42,16 -41,6 -42,-76 -42,-27 -42,54 h -41 l -42,-21 -42,21 -42,33 -41,-11 -42,-38 v -13 l 42,11 41,16 42,-16 42,-11 42,6 41,5 42,-38 42,22 42,48 41,6 42,-22 42,6 42,43 41,-124 42,27 42,70 42,27 41,-103 42,11 42,76 42,-71 41,33 42,-49 z"
     fill="#7d72c4"
     id="path16" /><path
     d="m 1920,471 -42,-22 -41,-21 -42,54 -42,-6 -42,-54 -41,60 -42,10 -42,-16 -42,-21 -41,59 -42,-49 -42,44 -42,-22 -41,-5 -42,-27 -42,-38 -42,70 -41,-16 -42,-16 -42,5 h -42 -41 l -42,-11 v -45 l 42,38 41,11 42,-33 42,-21 42,21 h 41 l 42,-54 42,27 42,76 41,-6 42,-16 42,-5 42,43 41,-108 42,32 42,71 42,-6 41,-75 42,10 42,54 42,-70 41,22 42,-16 z"
     fill="#776bbb"
     id="path18" /><path
     d="m 1920,482 -42,21 -41,-38 -42,22 h -42 l -42,-16 -41,27 -42,11 -42,5 -42,-5 -41,10 -42,-27 -42,33 -42,-16 h -41 l -42,-17 -42,-16 -42,49 -41,-22 -42,-43 -42,32 -42,-16 -41,-5 -42,11 v -35 l 42,11 h 41 42 l 42,-5 42,16 41,16 42,-70 42,38 42,27 41,5 42,22 42,-44 42,49 41,-59 42,21 42,16 42,-10 41,-60 42,54 42,6 42,-54 41,21 42,22 z"
     fill="#7064b1"
     id="path20" /><path
     d="m 1920,514 -42,22 -41,-33 -42,6 h -42 l -42,-6 -41,6 -42,5 -42,16 -42,11 h -41 l -42,-11 -42,11 -42,-16 -41,5 -42,-21 h -42 l -42,27 -41,-17 -42,-16 -42,11 -42,5 -41,-10 -42,10 v -39 l 42,-11 41,5 42,16 42,-32 42,43 41,22 42,-49 42,16 42,17 h 41 l 42,16 42,-33 42,27 41,-10 42,5 42,-5 42,-11 41,-27 42,16 h 42 l 42,-22 41,38 42,-21 z"
     fill="#695ea7"
     id="path22" /><path
     d="m 1920,541 h -42 -41 -42 -42 -42 -41 -42 -42 -42 -41 -42 -42 -42 -41 -42 -42 -42 -41 -42 -42 -42 -41 -42 v -24 l 42,-10 41,10 42,-5 42,-11 42,16 41,17 42,-27 h 42 l 42,21 41,-5 42,16 42,-11 42,11 h 41 l 42,-11 42,-16 42,-5 41,-6 42,6 h 42 l 42,-6 41,33 42,-22 z"
     fill="#62579e"
     id="path24" /><g
     id="g176"
     transform="translate(1920)"><path
       d="m 0,6 42,65 41,49 42,-6 42,-81 42,6 41,86 42,-108 h 42 l 42,76 41,59 42,-81 42,-54 42,27 41,11 42,-22 42,49 42,-59 41,59 42,-27 42,5 42,-43 41,-5 42,27 V 0 H 918 877 835 793 751 710 668 626 584 543 501 459 417 376 334 292 250 209 167 125 83 42 0 Z"
       fill="#ada3e2"
       id="path135" /><path
       d="m 0,120 42,11 41,97 42,-81 42,-33 42,-54 41,162 42,-59 42,38 42,-38 41,124 42,-173 42,125 42,-92 h 41 l 42,11 42,37 42,-27 41,54 42,-59 42,27 42,65 41,-130 42,22 V 37 L 918,10 877,15 835,58 793,53 751,80 710,21 668,80 626,31 584,53 543,42 501,15 459,69 417,150 376,91 334,15 H 292 L 250,123 209,37 167,31 125,112 83,118 42,69 0,4 Z"
       fill="#a69cdf"
       id="path137" /><path
       d="m 0,131 42,16 41,124 42,-113 42,-22 42,-32 41,135 42,-33 42,16 42,-37 41,113 42,-140 42,86 42,-70 41,11 42,10 42,6 42,-27 41,59 42,-48 42,37 42,44 41,-103 42,16 v -34 l -42,-22 -41,130 -42,-65 -42,-27 -42,59 -41,-54 -42,27 -42,-37 -42,-11 H 543 L 501,237 459,112 417,285 376,161 334,199 292,161 250,220 209,58 167,112 125,145 83,226 42,129 0,118 Z"
       fill="#a095dd"
       id="path139" /><path
       d="m 0,217 42,81 41,38 42,-6 42,-81 42,-16 41,119 42,-59 42,16 42,-22 41,87 42,-65 42,-43 42,59 41,-43 42,-43 42,21 42,27 41,38 42,-22 42,6 h 42 l 41,-43 42,-6 v -83 l -42,-16 -41,103 -42,-44 -42,-37 -42,48 -41,-59 -42,27 -42,-6 -42,-10 -41,-11 -42,70 -42,-86 -42,140 -41,-113 -42,37 -42,-16 -42,33 -41,-135 -42,32 -42,22 L 83,269 42,145 0,129 Z"
       fill="#998eda"
       id="path141" /><path
       d="m 0,239 42,108 41,5 h 42 l 42,-54 42,-49 41,125 42,-71 42,54 42,-54 41,103 42,-70 42,-43 42,64 41,-70 42,-11 42,11 42,38 41,32 42,-43 42,27 42,-11 41,-43 42,-21 v -8 l -42,6 -41,43 h -42 l -42,-6 -42,22 -41,-38 -42,-27 -42,-21 -42,43 -41,43 -42,-59 -42,43 -42,65 -41,-87 -42,22 -42,-16 -42,59 -41,-119 -42,16 -42,81 -42,6 L 42,296 0,215 Z"
       fill="#9287d7"
       id="path143" /><path
       d="m 0,298 42,65 41,11 42,21 42,-48 42,-49 41,92 42,-38 42,16 42,-54 41,141 42,-65 42,-43 42,37 41,-37 42,-17 42,-5 42,49 41,21 42,-21 42,27 42,-49 41,-22 42,-21 v -45 l -42,21 -41,43 -42,11 -42,-27 -42,43 -41,-32 -42,-38 -42,-11 -42,11 -41,70 -42,-64 -42,43 -42,70 -41,-103 -42,54 -42,-54 -42,71 -41,-125 -42,49 -42,54 H 83 L 42,345 0,237 Z"
       fill="#8b7fd4"
       id="path145" /><path
       d="m 0,368 42,49 41,-33 42,71 42,-76 42,-11 41,103 42,-27 42,-70 42,-27 41,124 42,-43 42,-6 42,22 41,-6 42,-48 42,-22 42,38 41,-5 42,-6 42,11 42,16 41,-16 42,-11 v -88 l -42,21 -41,22 -42,49 -42,-27 -42,21 -41,-21 -42,-49 -42,5 -42,17 -41,37 -42,-37 -42,43 -42,65 -41,-141 -42,54 -42,-16 -42,38 -41,-92 -42,49 -42,48 L 83,372 42,361 0,296 Z"
       fill="#8479ce"
       id="path147" /><path
       d="m 0,401 42,16 41,-22 42,70 42,-54 42,-10 41,75 42,6 42,-71 42,-32 41,108 42,-43 42,5 42,16 41,6 42,-76 42,-27 42,54 h 41 l 42,-21 42,21 42,33 41,-11 42,-38 v -13 l -42,11 -41,16 -42,-16 -42,-11 -42,6 -41,5 -42,-38 -42,22 -42,48 -41,6 -42,-22 -42,6 -42,43 -41,-124 -42,27 -42,70 -42,27 -41,-103 -42,11 -42,76 L 83,382 42,415 0,366 Z"
       fill="#7d72c4"
       id="path149" /><path
       d="m 0,471 42,-22 41,-21 42,54 42,-6 42,-54 41,60 42,10 42,-16 42,-21 41,59 42,-49 42,44 42,-22 41,-5 42,-27 42,-38 42,70 41,-16 42,-16 42,5 h 42 41 l 42,-11 v -45 l -42,38 -41,11 -42,-33 -42,-21 -42,21 h -41 l -42,-54 -42,27 -42,76 -41,-6 -42,-16 -42,-5 -42,43 -41,-108 -42,32 -42,71 -42,-6 -41,-75 -42,10 -42,54 L 83,393 42,415 0,399 Z"
       fill="#776bbb"
       id="path151" /><path
       d="m 0,482 42,21 41,-38 42,22 h 42 l 42,-16 41,27 42,11 42,5 42,-5 41,10 42,-27 42,33 42,-16 h 41 l 42,-17 42,-16 42,49 41,-22 42,-43 42,32 42,-16 41,-5 42,11 v -35 l -42,11 h -41 -42 l -42,-5 -42,16 -41,16 -42,-70 -42,38 -42,27 -41,5 -42,22 -42,-44 -42,49 -41,-59 -42,21 -42,16 -42,-10 -41,-60 -42,54 -42,6 -42,-54 -41,21 -42,22 z"
       fill="#7064b1"
       id="path153" /><path
       d="m 0,514 42,22 41,-33 42,6 h 42 l 42,-6 41,6 42,5 42,16 42,11 h 41 l 42,-11 42,11 42,-16 41,5 42,-21 h 42 l 42,27 41,-17 42,-16 42,11 42,5 41,-10 42,10 v -39 l -42,-11 -41,5 -42,16 -42,-32 -42,43 -41,22 -42,-49 -42,16 -42,17 h -41 l -42,16 -42,-33 -42,27 -41,-10 -42,5 -42,-5 -42,-11 -41,-27 -42,16 H 125 L 83,463 42,501 0,480 Z"
       fill="#695ea7"
       id="path155" /><path
       d="m 0,541 h 42 41 42 42 42 41 42 42 42 41 42 42 42 41 42 42 42 41 42 42 42 41 42 v -24 l -42,-10 -41,10 -42,-5 -42,-11 -42,16 -41,17 -42,-27 h -42 l -42,21 -41,-5 -42,16 -42,-11 -42,11 h -41 l -42,-11 -42,-16 -42,-5 -41,-6 -42,6 H 125 L 83,501 42,534 0,512 Z"
       fill="#62579e"
       id="path157" /></g><g
     id="g219"><path
       d="m 0,6 42,65 41,49 42,-6 42,-81 42,6 41,86 42,-108 h 42 l 42,76 41,59 42,-81 42,-54 42,27 41,11 42,-22 42,49 42,-59 41,59 42,-27 42,5 42,-43 41,-5 42,27 V 0 H 918 877 835 793 751 710 668 626 584 543 501 459 417 376 334 292 250 209 167 125 83 42 0 Z"
       fill="#ada3e2"
       id="path178" /><path
       d="m 0,120 42,11 41,97 42,-81 42,-33 42,-54 41,162 42,-59 42,38 42,-38 41,124 42,-173 42,125 42,-92 h 41 l 42,11 42,37 42,-27 41,54 42,-59 42,27 42,65 41,-130 42,22 V 37 L 918,10 877,15 835,58 793,53 751,80 710,21 668,80 626,31 584,53 543,42 501,15 459,69 417,150 376,91 334,15 H 292 L 250,123 209,37 167,31 125,112 83,118 42,69 0,4 Z"
       fill="#a69cdf"
       id="path180" /><path
       d="m 0,131 42,16 41,124 42,-113 42,-22 42,-32 41,135 42,-33 42,16 42,-37 41,113 42,-140 42,86 42,-70 41,11 42,10 42,6 42,-27 41,59 42,-48 42,37 42,44 41,-103 42,16 v -34 l -42,-22 -41,130 -42,-65 -42,-27 -42,59 -41,-54 -42,27 -42,-37 -42,-11 H 543 L 501,237 459,112 417,285 376,161 334,199 292,161 250,220 209,58 167,112 125,145 83,226 42,129 0,118 Z"
       fill="#a095dd"
       id="path182" /><path
       d="m 0,217 42,81 41,38 42,-6 42,-81 42,-16 41,119 42,-59 42,16 42,-22 41,87 42,-65 42,-43 42,59 41,-43 42,-43 42,21 42,27 41,38 42,-22 42,6 h 42 l 41,-43 42,-6 v -83 l -42,-16 -41,103 -42,-44 -42,-37 -42,48 -41,-59 -42,27 -42,-6 -42,-10 -41,-11 -42,70 -42,-86 -42,140 -41,-113 -42,37 -42,-16 -42,33 -41,-135 -42,32 -42,22 L 83,269 42,145 0,129 Z"
       fill="#998eda"
       id="path184" /><path
       d="m 0,239 42,108 41,5 h 42 l 42,-54 42,-49 41,125 42,-71 42,54 42,-54 41,103 42,-70 42,-43 42,64 41,-70 42,-11 42,11 42,38 41,32 42,-43 42,27 42,-11 41,-43 42,-21 v -8 l -42,6 -41,43 h -42 l -42,-6 -42,22 -41,-38 -42,-27 -42,-21 -42,43 -41,43 -42,-59 -42,43 -42,65 -41,-87 -42,22 -42,-16 -42,59 -41,-119 -42,16 -42,81 -42,6 L 42,296 0,215 Z"
       fill="#9287d7"
       id="path186" /><path
       d="m 0,298 42,65 41,11 42,21 42,-48 42,-49 41,92 42,-38 42,16 42,-54 41,141 42,-65 42,-43 42,37 41,-37 42,-17 42,-5 42,49 41,21 42,-21 42,27 42,-49 41,-22 42,-21 v -45 l -42,21 -41,43 -42,11 -42,-27 -42,43 -41,-32 -42,-38 -42,-11 -42,11 -41,70 -42,-64 -42,43 -42,70 -41,-103 -42,54 -42,-54 -42,71 -41,-125 -42,49 -42,54 H 83 L 42,345 0,237 Z"
       fill="#8b7fd4"
       id="path188" /><path
       d="m 0,368 42,49 41,-33 42,71 42,-76 42,-11 41,103 42,-27 42,-70 42,-27 41,124 42,-43 42,-6 42,22 41,-6 42,-48 42,-22 42,38 41,-5 42,-6 42,11 42,16 41,-16 42,-11 v -88 l -42,21 -41,22 -42,49 -42,-27 -42,21 -41,-21 -42,-49 -42,5 -42,17 -41,37 -42,-37 -42,43 -42,65 -41,-141 -42,54 -42,-16 -42,38 -41,-92 -42,49 -42,48 L 83,372 42,361 0,296 Z"
       fill="#8479ce"
       id="path190" /><path
       d="m 0,401 42,16 41,-22 42,70 42,-54 42,-10 41,75 42,6 42,-71 42,-32 41,108 42,-43 42,5 42,16 41,6 42,-76 42,-27 42,54 h 41 l 42,-21 42,21 42,33 41,-11 42,-38 v -13 l -42,11 -41,16 -42,-16 -42,-11 -42,6 -41,5 -42,-38 -42,22 -42,48 -41,6 -42,-22 -42,6 -42,43 -41,-124 -42,27 -42,70 -42,27 -41,-103 -42,11 -42,76 L 83,382 42,415 0,366 Z"
       fill="#7d72c4"
       id="path192" /><path
       d="m 0,471 42,-22 41,-21 42,54 42,-6 42,-54 41,60 42,10 42,-16 42,-21 41,59 42,-49 42,44 42,-22 41,-5 42,-27 42,-38 42,70 41,-16 42,-16 42,5 h 42 41 l 42,-11 v -45 l -42,38 -41,11 -42,-33 -42,-21 -42,21 h -41 l -42,-54 -42,27 -42,76 -41,-6 -42,-16 -42,-5 -42,43 -41,-108 -42,32 -42,71 -42,-6 -41,-75 -42,10 -42,54 L 83,393 42,415 0,399 Z"
       fill="#776bbb"
       id="path194" /><path
       d="m 0,482 42,21 41,-38 42,22 h 42 l 42,-16 41,27 42,11 42,5 42,-5 41,10 42,-27 42,33 42,-16 h 41 l 42,-17 42,-16 42,49 41,-22 42,-43 42,32 42,-16 41,-5 42,11 v -35 l -42,11 h -41 -42 l -42,-5 -42,16 -41,16 -42,-70 -42,38 -42,27 -41,5 -42,22 -42,-44 -42,49 -41,-59 -42,21 -42,16 -42,-10 -41,-60 -42,54 -42,6 -42,-54 -41,21 -42,22 z"
       fill="#7064b1"
       id="path196" /><path
       d="m 0,514 42,22 41,-33 42,6 h 42 l 42,-6 41,6 42,5 42,16 42,11 h 41 l 42,-11 42,11 42,-16 41,5 42,-21 h 42 l 42,27 41,-17 42,-16 42,11 42,5 41,-10 42,10 v -39 l -42,-11 -41,5 -42,16 -42,-32 -42,43 -41,22 -42,-49 -42,16 -42,17 h -41 l -42,16 -42,-33 -42,27 -41,-10 -42,5 -42,-5 -42,-11 -41,-27 -42,16 H 125 L 83,463 42,501 0,480 Z"
       fill="#695ea7"
       id="path198" /><path
       d="m 0,541 h 42 41 42 42 42 41 42 42 42 41 42 42 42 41 42 42 42 41 42 42 42 41 42 v -24 l -42,-10 -41,10 -42,-5 -42,-11 -42,16 -41,17 -42,-27 h -42 l -42,21 -41,-5 -42,16 -42,-11 -42,11 h -41 l -42,-11 -42,-16 -42,-5 -41,-6 -42,6 H 125 L 83,501 42,534 0,512 Z"
       fill="#62579e"
       id="path200" /></g></svg>
